<?xml version="1.0" standalone="no"?>
<!DOCTYPE svg PUBLIC "-//W3C//DTD SVG 1.1//EN" "http://www.w3.org/Graphics/SVG/1.1/DTD/svg11.dtd" >
<svg xmlns="http://www.w3.org/2000/svg">
<metadata></metadata>
<defs>
<font id="a_avanteintbold" horiz-adv-x="1210" >
<font-face units-per-em="2048" ascent="1638" descent="-410" />
<missing-glyph horiz-adv-x="634" />
<glyph horiz-adv-x="2048" />
<glyph horiz-adv-x="2048" />
<glyph unicode="&#xd;" horiz-adv-x="634" />
<glyph horiz-adv-x="2048" />
<glyph unicode=" "  horiz-adv-x="634" />
<glyph unicode="&#x09;" horiz-adv-x="634" />
<glyph unicode="&#xa0;" horiz-adv-x="634" />
<glyph unicode="!" horiz-adv-x="634" d="M180 426v1049h275v-1049h-275zM184 0v287h267v-287h-267z" />
<glyph unicode="&#x22;" horiz-adv-x="772" d="M80 1464h244l-35 -577h-174zM449 1464h243l-35 -577h-174z" />
<glyph unicode="#" horiz-adv-x="1413" d="M76 446l41 185h258l57 205h-268l41 184h268l105 389h196l-104 -389h207l104 389h199l-105 -389h264l-41 -184h-264l-57 -205h274l-41 -185h-276l-105 -403h-198l106 403h-209l-104 -403h-197l103 403h-254zM571 631h209l58 205h-209z" />
<glyph unicode="$" d="M147 442h265q0 -193 186 -192q80 0 125 52t45 134q0 39 -10 66q-27 70 -185 133q-203 84 -262 131q-135 102 -135 278q0 150 85 255.5t231 140.5v209h229v-209q283 -78 283 -375h-252q-10 158 -152 158q-68 0 -113 -35t-45 -101q0 -98 154 -184q279 -154 289 -160 q154 -117 153 -290q0 -164 -77 -273q-84 -117 -240 -147v-232h-229v226q-164 31 -254.5 139t-90.5 276z" />
<glyph unicode="%" horiz-adv-x="1765" d="M78 1145q0 147 106.5 253.5t253.5 106.5q150 0 256.5 -105t106.5 -255t-106.5 -254.5t-256.5 -104.5q-147 0 -253.5 105.5t-106.5 253.5zM266 1145q0 -72 49.5 -119t120.5 -47q74 0 121 46t47 120t-47 121t-121 47t-122 -47t-48 -121zM436 -16l701 1505h188l-700 -1505 h-189zM967 332q0 152 105 256t257 104t256.5 -104.5t104.5 -255.5q0 -147 -106.5 -254t-254.5 -107q-150 0 -256 105.5t-106 255.5zM1157 332q0 -68 51.5 -119t118.5 -51q70 0 118 50t48 120q0 72 -47 120t-119 48t-121 -48.5t-49 -119.5z" />
<glyph unicode="&#x26;" horiz-adv-x="1474" d="M117 406q0 238 274 413q-154 127 -153 303q0 164 109.5 270.5t273.5 106.5q154 0 259 -104.5t105 -257.5q0 -182 -219 -328l199 -193q68 137 125 304h282q-90 -262 -213 -488l273 -260l-177 -182l-239 223q-168 -242 -432 -242q-188 0 -327.5 124t-139.5 311zM401 424 q0 -84 55.5 -137.5t139.5 -53.5q137 0 233 158q-16 14 -147 139q-41 39 -121 123q-160 -100 -160 -229zM498 1143q0 -102 106 -185q131 89 131 187q0 123 -117 123q-53 0 -86.5 -36t-33.5 -89z" />
<glyph unicode="'" horiz-adv-x="401" d="M80 1464h242l-35 -577h-172z" />
<glyph unicode="(" horiz-adv-x="729" d="M180 205v688q0 457 459 637v-303q-123 -53 -160 -146q-27 -66 -26 -221v-616q0 -162 26 -232q37 -98 160 -164v-294q-246 96 -352.5 244.5t-106.5 406.5z" />
<glyph unicode=")" horiz-adv-x="729" d="M90 -152q123 66 160 164q27 68 26 232v630q0 150 -28 213q-37 86 -158 140v303q231 -90 342 -240q117 -156 117 -397v-688q0 -258 -106.5 -406.5t-352.5 -244.5v294z" />
<glyph unicode="*" horiz-adv-x="1185" d="M166 1090l65 192l269 -96l-4 289h194l-4 -289l270 96l66 -192l-281 -78l183 -234l-162 -119l-168 246l-168 -246l-164 119l182 234z" />
<glyph unicode="+" horiz-adv-x="1462" d="M178 446v232h438v442h232v-442h438v-232h-438v-446h-232v446h-438z" />
<glyph unicode="," horiz-adv-x="610" d="M170 0v289h272v-324q0 -123 -73.5 -188.5t-198.5 -65.5v154q72 0 94 33q18 27 19 102h-113z" />
<glyph unicode="-" horiz-adv-x="622" d="M47 436v256h531v-256h-531z" />
<glyph unicode="." horiz-adv-x="610" d="M168 0v295h272v-295h-272z" />
<glyph unicode="/" horiz-adv-x="878" d="M45 -195l504 1684h272l-504 -1684h-272z" />
<glyph unicode="0" d="M78 512v451q0 233 147.5 386.5t380.5 153.5t380 -151.5t147 -384.5v-457q0 -233 -146.5 -386t-380.5 -153q-233 0 -380.5 154t-147.5 387zM375 483q0 -106 62.5 -174.5t166.5 -68.5q227 0 227 274v449q0 272 -227 272q-229 0 -229 -272v-480z" />
<glyph unicode="1" d="M240 0v264h211v965h-170v246h467v-1211h208v-264h-716z" />
<glyph unicode="2" d="M111 0v250q74 76 194 172q297 238 422 403q80 106 80 207q0 90 -54.5 147.5t-144.5 57.5q-217 0 -217 -272h-280v4q0 248 129.5 391t375.5 143q201 0 342.5 -131t141.5 -332q0 -319 -418 -637q-102 -78 -164 -137h582v-266h-989z" />
<glyph unicode="3" d="M78 477h297q0 -102 53 -164q55 -68 156 -67q102 0 168.5 64.5t66.5 166.5q0 141 -57 206t-197 65q-12 0 -155 -29l-117 170l340 319h-467v267h868v-254l-276 -244q360 -94 360 -477q0 -242 -143.5 -385.5t-382.5 -143.5q-236 0 -375 136.5t-139 369.5z" />
<glyph unicode="4" d="M61 258v234l654 983h276v-975h158v-242h-158v-258h-270v258h-660zM352 500h369v598z" />
<glyph unicode="5" d="M66 424h294q18 -80 84 -131t148 -51q109 0 182.5 74.5t73.5 183.5q0 117 -70.5 184.5t-187.5 67.5q-152 0 -221 -129l-244 57l133 795h750v-263h-529l-53 -274q86 68 225 68q209 0 351.5 -144.5t142.5 -355.5q0 -231 -160 -383t-393 -152q-213 0 -355.5 121t-170.5 332z " />
<glyph unicode="6" d="M61 510q0 90 50 205q72 168 219 389q127 186 254 371h336q-117 -160 -342 -486q51 18 139 19q190 0 315 -158q117 -145 117 -342q0 -225 -160 -381t-385 -156q-231 0 -387 154t-156 385zM348 508q0 -106 72 -186t178 -80q115 0 185.5 72.5t70.5 187.5q0 111 -71.5 182.5 t-182.5 71.5q-102 0 -177 -73t-75 -175z" />
<glyph unicode="7" d="M164 1214v261h895v-256l-529 -1219h-319l553 1214h-600z" />
<glyph unicode="8" d="M104 440q0 268 226 375q-147 106 -148 285q0 174 123 288.5t297 114.5q176 0 301 -112.5t125 -286.5q0 -184 -154 -289q228 -99 228 -369q0 -207 -146.5 -341t-353.5 -134q-197 0 -344 135q-154 139 -154 334zM395 459q0 -92 59.5 -156.5t149.5 -64.5q92 0 150.5 63.5 t58.5 155.5q0 98 -56.5 158.5t-152.5 60.5q-94 0 -151.5 -61.5t-57.5 -155.5zM444 1087q0 -72 44 -119.5t116 -47.5t117 47.5t45 119.5q0 70 -44 118t-114 48q-72 0 -118 -47t-46 -119z" />
<glyph unicode="9" d="M66 967q0 227 158.5 381.5t385.5 154.5q236 0 389.5 -151.5t153.5 -386.5q0 -207 -344 -701q-84 -119 -178 -264h-336q117 160 342 485q-51 -18 -139 -18q-188 0 -316 158q-116 147 -116 342zM360 973q0 -106 74 -180t180 -74q104 0 178 71.5t74 176.5q0 111 -70.5 188.5 t-179.5 77.5q-113 0 -184.5 -73.5t-71.5 -186.5z" />
<glyph unicode=":" horiz-adv-x="614" d="M170 0v295h272v-295h-272zM170 766v295h272v-295h-272z" />
<glyph unicode=";" horiz-adv-x="614" d="M170 0v289h274v-326q0 -125 -73.5 -188.5t-198.5 -63.5v154q78 6 96 33q16 20 17 102h-115zM170 766v295h272v-295h-272z" />
<glyph unicode="&#x3c;" horiz-adv-x="1462" d="M180 453v221l1104 456v-253l-835 -314l835 -315v-250z" />
<glyph unicode="=" horiz-adv-x="1462" d="M178 217v229h1108v-229h-1108zM178 680v229h1108v-229h-1108z" />
<glyph unicode="&#x3e;" horiz-adv-x="1462" d="M180 -2v250l834 315l-834 314v253l1104 -456v-221z" />
<glyph unicode="?" horiz-adv-x="1095" d="M61 1010v32q0 201 140.5 331t341.5 130q205 0 327 -108q129 -115 129 -316q0 -127 -92 -248q-86 -94 -174 -188q-92 -111 -92 -215h-276q0 184 151 346q43 39 123 123q63 76 63 158q0 180 -178 180q-180 0 -180 -225h-283zM365 0v289h266v-289h-266z" />
<glyph unicode="@" horiz-adv-x="2074" d="M106 528q0 287 151 517.5t413 347.5q205 92 460 92q170 0 316 -45q231 -72 373 -238q150 -178 149 -411q0 -362 -250 -560q-145 -115 -321 -114q-201 0 -201 178q-111 -174 -305 -174q-319 0 -320 338q0 219 129 383q139 174 355 174q171 0 245 -152l58 117h133 l-145 -584q-8 -33 -9 -59q0 -94 101 -94q102 0 211 102q172 164 172 426q0 283 -213 445q-193 145 -486 145q-369 0 -614 -234q-254 -238 -254 -602q0 -180 61 -311q90 -193 303 -299q190 -96 422 -96q350 0 629 192l57 -84q-299 -223 -673 -223q-389 0 -635 189 q-311 240 -312 634zM733 453q0 -221 191 -222q98 0 175 69t105 181l60 240q-35 186 -199 186q-158 0 -252 -155q-80 -131 -80 -299z" />
<glyph unicode="A" horiz-adv-x="1380" d="M-18 0l583 1475h252l582 -1475h-320l-116 319h-547l-119 -319h-315zM506 569h368l-182 543z" />
<glyph unicode="B" horiz-adv-x="1177" d="M131 0v1475h432q211 0 334 -89q141 -100 141 -303q0 -195 -166 -290q240 -80 240 -340q0 -227 -160 -347q-143 -106 -379 -106h-442zM420 266h172q162 0 213 84q22 35 22 96v5q0 190 -231 190h-176v-375zM420 887h104q226 0 226 166q0 155 -198 155h-3h-129v-321z" />
<glyph unicode="C" horiz-adv-x="1601" d="M68 743q0 319 222 539.5t541 220.5q250 0 437.5 -131t265.5 -366h-324q-131 225 -381 225q-199 0 -330.5 -142.5t-131.5 -343.5t131 -348q134 -153 330 -153h3q252 0 375 217h328q-88 -227 -271.5 -358.5t-424.5 -131.5q-326 0 -548 223.5t-222 548.5z" />
<glyph unicode="D" horiz-adv-x="1439" d="M115 0v1475h516q334 0 531.5 -202t197.5 -538q0 -352 -217 -549q-209 -186 -568 -186h-460zM408 266h206q217 0 334 123t117 342q0 223 -121 350t-342 127h-194v-942z" />
<glyph unicode="E" horiz-adv-x="1040" d="M131 0v1475h793v-263h-498v-333h492v-265h-492v-346h498v-268h-793z" />
<glyph unicode="F" horiz-adv-x="991" d="M129 0v1475h764v-263h-469v-346h463v-262h-463v-604h-295z" />
<glyph unicode="G" horiz-adv-x="1667" d="M66 745q0 324 227 541t551 217q233 0 420 -121q197 -125 272 -340h-344q-129 188 -358 189q-197 0 -333 -142.5t-136 -340.5q0 -207 132 -356.5t337 -149.5q305 0 430 297h-555v254h895q0 -352 -207 -582q-215 -240 -563 -240q-322 0 -545 226.5t-223 547.5z" />
<glyph unicode="H" horiz-adv-x="1392" d="M131 0v1475h295v-590h541v590h295v-1475h-295v616h-541v-616h-295z" />
<glyph unicode="I" horiz-adv-x="567" d="M135 0v1475h297v-1475h-297z" />
<glyph unicode="J" horiz-adv-x="1038" d="M14 403h305q0 -165 140 -165h2q98 0 133 71q24 47 24 152v8v1006h295v-1024q0 -477 -462 -478q-197 0 -317 117t-120 313z" />
<glyph unicode="K" horiz-adv-x="1261" d="M131 0v1475h295v-711l514 711h326l-543 -715l551 -760h-354l-494 735v-735h-295z" />
<glyph unicode="L" horiz-adv-x="915" d="M131 0v1475h295v-1207h459v-268h-754z" />
<glyph unicode="M" horiz-adv-x="1798" d="M129 0v1475h410l360 -1069l361 1069h409v-1475h-285v834q0 49 6.5 144t6.5 142h-4l-394 -1120h-200l-393 1120h-5q0 -47 6.5 -142t6.5 -144v-834h-285z" />
<glyph unicode="N" horiz-adv-x="1458" d="M131 0v1475h275l645 -1020l-7 1020h281v-1475h-264l-655 1028l8 -1028h-283z" />
<glyph unicode="O" horiz-adv-x="1667" d="M68 741q0 317 225 539.5t543 222.5q319 0 541 -221.5t222 -540.5q0 -324 -221 -547t-544 -223q-319 0 -542.5 225.5t-223.5 544.5zM367 741q0 -199 135 -348t332 -149q205 0 337 149q129 143 129 350q0 199 -135 343.5t-331 144.5q-195 0 -331 -146.5t-136 -343.5z" />
<glyph unicode="P" horiz-adv-x="1167" d="M131 0v1475h479q524 0 525 -455q0 -354 -314 -459q-82 -27 -196 -33h-199v-528h-295zM426 793h152q270 0 270 208q0 211 -262 211h-160v-419z" />
<glyph unicode="Q" horiz-adv-x="1679" d="M66 741q0 317 225 539.5t543 222.5q324 0 544.5 -223t220.5 -547q0 -274 -151 -459q86 -41 209 -41v-251q-252 0 -416 104q-184 -115 -407 -115q-324 0 -546 222.5t-222 547.5zM365 741q0 -201 133 -346q136 -151 333 -151h3q205 0 340 149q129 143 129 350 q0 197 -136.5 342.5t-332.5 145.5q-197 0 -333 -146.5t-136 -343.5z" />
<glyph unicode="R" horiz-adv-x="1236" d="M131 0v1475h500q244 0 385 -123q151 -128 151 -366q0 -177 -110.5 -306t-282.5 -145l410 -535h-348l-414 600v-600h-291zM422 752h156q147 0 213 36q92 50 92 185q0 237 -302 237h-3h-156v-458z" />
<glyph unicode="S" horiz-adv-x="1083" d="M55 457h295q0 -90 47 -154q51 -72 140 -72q88 0 141 56.5t53 144.5q0 98 -115 172q-53 37 -200 96q-322 131 -322 394q0 195 137 307q129 102 328 102q201 0 319.5 -112.5t118.5 -313.5h-284q-14 170 -164 170q-166 0 -166 -149q0 -51 45 -104.5t137 -94.5 q176 -78 248 -123q143 -88 188 -192q27 -61 27 -148q0 -217 -134 -341t-353 -124q-221 0 -353.5 132.5t-132.5 353.5z" />
<glyph unicode="T" horiz-adv-x="921" d="M23 1210v265h878v-265h-291v-1210h-297v1210h-290z" />
<glyph unicode="U" horiz-adv-x="1282" d="M123 494v981h295v-936q0 -297 225 -297q129 0 180 88q41 70 41 209v936h295v-943q0 -248 -131 -399q-137 -162 -381 -162q-231 0 -377.5 146.5t-146.5 376.5z" />
<glyph unicode="V" horiz-adv-x="1318" d="M-2 1475h307l354 -1125l355 1125h307l-512 -1475h-299z" />
<glyph unicode="W" horiz-adv-x="1853" d="M0 1475h301l260 -1053l254 1053h223l250 -1053l262 1053h301l-419 -1475h-263l-243 1032l-246 -1032h-266z" />
<glyph unicode="X" horiz-adv-x="1363" d="M8 0l504 766l-467 709h338l303 -496l295 496h340l-465 -713l500 -762h-338l-340 549l-336 -549h-334z" />
<glyph unicode="Y" horiz-adv-x="1161" d="M-12 1475h321l271 -652l2 2l270 650h322l-445 -934v-541h-297v541z" />
<glyph unicode="Z" horiz-adv-x="991" d="M37 0v229l575 977h-555v269h889v-248l-567 -959h575v-268h-917z" />
<glyph unicode="[" horiz-adv-x="743" d="M158 -473v1976h495v-221h-227v-1534h227v-221h-495z" />
<glyph unicode="\" horiz-adv-x="878" d="M72 1489h272l506 -1684h-272z" />
<glyph unicode="]" horiz-adv-x="743" d="M90 -252h227v1534h-227v221h496v-1976h-496v221z" />
<glyph unicode="^" horiz-adv-x="1636" d="M256 829l432 648h260l430 -648h-270l-291 439l-291 -439h-270z" />
<glyph unicode="_" horiz-adv-x="1024" d="M-12 -246h1048v-123h-1048v123z" />
<glyph unicode="`" horiz-adv-x="1071" d="M285 1475l4 174l182 -43l264 -260l-106 -99z" />
<glyph unicode="a" horiz-adv-x="1296" d="M61 532q0 236 147.5 398t381.5 162q215 0 330 -146v115h266v-1061h-262v125q-121 -154 -332 -154q-233 0 -382 162t-149 399zM319 532q0 -129 87.5 -226t216.5 -97q125 0 215 96t90 221q0 135 -88 230.5t-222 95.5q-131 0 -215 -94t-84 -226z" />
<glyph unicode="b" horiz-adv-x="1296" d="M111 0v1577h266v-623q137 137 332 138q236 0 381 -161t145 -399q0 -242 -149.5 -401.5t-389.5 -159.5q-207 0 -327 156v-127h-258zM369 530q0 -127 87 -224t212 -97q131 0 220 95t89 228q0 131 -87 225.5t-218 94.5q-129 0 -216 -95t-87 -227z" />
<glyph unicode="c" horiz-adv-x="1204" d="M55 530q0 248 155 405t402 157q209 0 349 -103q145 -109 188 -309h-266q-80 172 -279 172q-137 0 -213 -91t-76 -231q0 -135 83 -228t216 -93q205 0 269 174h268q-47 -195 -190.5 -304.5t-346.5 -109.5q-244 0 -401.5 159t-157.5 402z" />
<glyph unicode="d" horiz-adv-x="1296" d="M61 532q0 233 146.5 396.5t378.5 163.5q199 0 334 -140v625h266v-1577h-262v117q-121 -145 -332 -146q-233 0 -382 162t-149 399zM319 532q0 -131 85 -226t217 -95q131 0 218 93t87 224q0 137 -83 230.5t-218 93.5q-133 0 -219.5 -93t-86.5 -227z" />
<glyph unicode="e" horiz-adv-x="1216" d="M57 530q0 236 158 400t393 164q180 0 316.5 -94.5t197.5 -264.5q39 -106 39 -289h-846q43 -251 297 -251h2q98 0 148 22q65 33 96 117h270q-147 -365 -516 -365q-244 0 -399.5 159t-155.5 402zM322 641h577q-51 225 -287 225q-229 0 -290 -225z" />
<glyph unicode="f" horiz-adv-x="548" d="M25 852v209h112v188q0 328 371 328h41v-207q-147 -4 -148 -131v-178h148v-209h-143v-852h-267v852h-114z" />
<glyph unicode="g" horiz-adv-x="1296" d="M61 532q0 233 150.5 396.5t382.5 163.5q211 0 326 -146v115h266v-963q0 -270 -144 -424q-149 -155 -414 -155h-3q-190 0 -332 92q-154 100 -197 276h293q25 -68 88.5 -107.5t136.5 -39.5q160 0 240 119q66 100 66 270q-123 -158 -320 -158q-236 0 -387.5 162t-151.5 399z M319 532q0 -131 88.5 -226t217.5 -95q127 0 213 93t86 220q0 133 -85 229.5t-218 96.5q-129 0 -215.5 -93t-86.5 -225z" />
<glyph unicode="h" horiz-adv-x="1161" d="M113 0v1577h268v-629q88 137 276 137q193 0 295 -116q96 -113 97 -307v-662h-267v584q0 262 -190 262q-211 0 -211 -303v-543h-268z" />
<glyph unicode="i" horiz-adv-x="489" d="M113 0v1061h264v-1061h-264zM119 1274v260h252v-260h-252z" />
<glyph unicode="j" horiz-adv-x="497" d="M-33 -258q98 0 127 39q25 31 25 135v1145h266v-1165q0 -213 -106 -293q-92 -70 -312 -70v209zM125 1274v260h254v-260h-254z" />
<glyph unicode="k" horiz-adv-x="1036" d="M111 0v1577h264v-987l327 471h302l-381 -492l413 -569h-303l-358 522v-522h-264z" />
<glyph unicode="l" horiz-adv-x="493" d="M113 0v1577h268v-1577h-268z" />
<glyph unicode="m" horiz-adv-x="1775" d="M111 0v1061h247v-121q94 145 285 145q209 0 305 -184q96 184 334 184q182 0 283.5 -110.5t101.5 -294.5v-680h-266v602q0 250 -187 250q-193 0 -192 -277v-575h-262v561q0 291 -187 291q-201 0 -200 -285v-567h-262z" />
<glyph unicode="n" horiz-adv-x="1165" d="M111 0v1061h256v-119q98 143 286 143q199 0 301.5 -112.5t102.5 -313.5v-659h-266v592q0 254 -199 254q-213 0 -213 -303v-543h-268z" />
<glyph unicode="o" horiz-adv-x="1253" d="M55 537q0 242 165 399.5t407 157.5q244 0 407.5 -157.5t163.5 -399.5q0 -250 -160.5 -408t-410.5 -158t-411 159t-161 407zM328 530q0 -137 80.5 -226t218.5 -89q137 0 218 89t81 226q0 141 -80 230.5t-219 89.5q-137 0 -218 -90.5t-81 -229.5z" />
<glyph unicode="p" horiz-adv-x="1296" d="M111 -455v1516h256v-129q131 158 340 158q238 0 385 -166q143 -158 143 -400q0 -227 -147.5 -391t-372.5 -164q-203 0 -338 144v-568h-266zM371 532q0 -135 84 -229t217 -94q127 0 216 96t89 223q0 135 -87 228.5t-220 93.5q-127 0 -213 -94t-86 -224z" />
<glyph unicode="q" horiz-adv-x="1296" d="M61 524q0 -225 146 -387q152 -168 375 -168q203 0 338 144v-568h266v1516h-256v-129q-131 158 -340 158q-238 0 -383.5 -163t-145.5 -403zM319 528q0 135 87.5 228.5t220.5 93.5q129 0 214 -93t85 -225q0 -135 -84 -229t-217 -94q-125 0 -215.5 96t-90.5 223z" />
<glyph unicode="r" horiz-adv-x="681" d="M111 0v1061h254v-121q29 51 84 93t108 42q43 0 82 -14v-289q-27 16 -115 16q-147 0 -147 -194v-594h-266z" />
<glyph unicode="s" horiz-adv-x="888" d="M55 330h250q0 -145 141 -146q131 0 132 115q0 63 -82 113q-31 16 -140 59q-121 47 -195.5 109.5t-74.5 183.5q0 145 106.5 238.5t253.5 93.5q324 0 357 -320h-250q0 102 -113 103q-104 0 -104 -97q0 -23 8 -39t33 -32q51 -35 156.5 -79t150.5 -75q78 -51 117 -131 q26 -51 26 -124v-5q0 -166 -114 -252q-104 -76 -275 -76q-162 0 -272.5 100.5t-110.5 260.5z" />
<glyph unicode="t" horiz-adv-x="581" d="M25 852v209h114v348h267v-348h151v-209h-151v-852h-267v852h-114z" />
<glyph unicode="u" horiz-adv-x="1163" d="M109 420v641h266v-582q0 -266 194 -266q211 0 211 303v545h267v-1061h-254v119q-94 -147 -271 -148q-199 0 -309 127q-104 119 -104 322z" />
<glyph unicode="v" horiz-adv-x="1054" d="M18 1061h269l239 -721l246 721h264l-401 -1061h-225z" />
<glyph unicode="w" horiz-adv-x="1515" d="M12 1061h269l186 -684l197 684h192l195 -684l188 684h266l-346 -1061h-203l-198 705l-199 -705h-201z" />
<glyph unicode="x" horiz-adv-x="1056" d="M0 0l375 563l-346 498h299l200 -320l201 320h299l-346 -498l375 -563h-301l-228 365l-227 -365h-301z" />
<glyph unicode="y" horiz-adv-x="1064" d="M8 1061h275l264 -705l250 705h272l-580 -1516h-268l195 498z" />
<glyph unicode="z" horiz-adv-x="821" d="M25 0v186l479 666h-447v209h715v-219l-446 -631h458v-211h-759z" />
<glyph unicode="{" horiz-adv-x="1071" d="M190 377v258q111 0 173.5 39t62.5 160v335q0 178 92 250q80 66 264 66h140v-201q-117 0 -162 -22q-66 -33 -66 -138v-356q1 -211 -237 -260v-4q238 -45 237 -260v-355q0 -102 66 -137q45 -25 162 -24v-201h-142q-182 0 -264 65q-90 74 -90 250v336q0 115 -61 160 q-53 39 -175 39z" />
<glyph unicode="|" horiz-adv-x="1024" d="M381 -473v1958h268v-1958h-268z" />
<glyph unicode="}" horiz-adv-x="1071" d="M150 -272q125 0 176 30.5t51 130.5v355q0 215 237 260v4q-238 49 -237 260v356q0 106 -66 140q-43 20 -161 20v201h139q186 0 266 -64q90 -72 90 -252v-335q0 -113 64 -160q53 -39 172 -39v-258q-119 0 -172 -39q-63 -47 -64 -160v-336q0 -176 -90 -250q-82 -66 -264 -65 h-141v201z" />
<glyph unicode="~" horiz-adv-x="1462" d="M156 592q158 162 323 162q90 0 254 -68t254 -68q140 1 285 146l37 -234q-152 -162 -326 -161q-86 0 -250 69.5t-256 69.5q-131 0 -284 -148z" />
<glyph unicode="&#xa7;" horiz-adv-x="1185" d="M82 625q0 178 184 311q-78 86 -78 211q0 164 125 264q115 92 283 92q176 0 291 -96q123 -100 123 -274h-244q-29 147 -178 147q-150 0 -150 -125q0 -84 164 -162l293 -139q213 -100 213 -352q0 -195 -188 -305q82 -94 81 -222q0 -166 -135 -266q-125 -92 -295 -92 t-292 104q-129 111 -129 279h247q25 -158 191 -158q70 0 112 29q53 35 54 100q0 59 -58 105q-31 25 -108 61l-297 144q-209 100 -209 344zM313 657q0 -104 144 -176l313 -157q102 48 102 159t-143 181l-313 153q-102 -51 -103 -160z" />
<glyph unicode="&#xa9;" horiz-adv-x="1660" d="M76 737q0 309 222 531.5t531 222.5q315 0 535.5 -219t220.5 -535q0 -309 -223 -532t-533 -223q-307 0 -530 224t-223 531zM203 737q0 -260 184 -446.5t442 -186.5q260 0 443.5 186.5t183.5 446.5q0 266 -180 448.5t-447 182.5q-258 0 -442 -186.5t-184 -444.5zM424 743 q0 195 111.5 322t304.5 127q139 0 239 -80q109 -82 121 -217h-178q-20 147 -191 147q-215 0 -215 -303q0 -121 52 -200q61 -96 174 -97q156 0 188 176h180q-18 -152 -121.5 -239.5t-257.5 -87.5q-188 0 -301 135q-106 127 -106 317z" />
<glyph unicode="&#xab;" horiz-adv-x="962" d="M33 625l252 317h223l-244 -317l246 -314h-225zM432 625l252 317h227l-245 -317l245 -314h-227z" />
<glyph unicode="&#xad;" horiz-adv-x="622" d="M47 436v256h531v-256h-531z" />
<glyph unicode="&#xae;" horiz-adv-x="1660" d="M76 737q0 311 221 532.5t532 221.5q313 0 534.5 -220t221.5 -534q0 -313 -221 -534t-535 -221q-305 0 -529 225t-224 530zM203 737q0 -256 184 -444.5t440 -188.5q262 0 445.5 183.5t183.5 445.5q0 268 -179 451.5t-448 183.5q-260 0 -443 -185.5t-183 -445.5zM518 326 v841h344q328 0 328 -227q0 -180 -178 -219q18 -6 39 -29q59 -66 88 -178q37 -150 55 -188h-195q-2 4 -10 26q-10 33 -28 99q-6 27 -21 79q-25 70 -68 115q-20 23 -41 23h-126v-342h-187zM705 788h129q168 0 167 138q0 74 -51 102q-35 18 -114 19h-131v-259z" />
<glyph unicode="&#xb0;" horiz-adv-x="739" d="M80 1161q0 121 85 205t206 84t204.5 -84t83.5 -205t-83.5 -206t-204.5 -85q-119 0 -205 86t-86 205zM211 1161q0 -66 47 -114t113 -48q70 0 114.5 46t44.5 116t-45 115t-114 45q-68 0 -114 -46t-46 -114z" />
<glyph unicode="&#xb6;" horiz-adv-x="1216" d="M27 1110q0 186 127 287q115 90 305 90h633v-162h-113v-1425h-182v1425h-187v-1425h-184v850q-172 4 -281 94q-119 100 -118 266z" />
<glyph unicode="&#xb7;" horiz-adv-x="610" d="M168 479v295h272v-295h-272z" />
<glyph unicode="&#xbb;" horiz-adv-x="962" d="M51 311l246 314l-246 317h228l251 -317l-251 -314h-228zM453 311l245 314l-243 317h223l252 -317l-252 -314h-225z" />
<glyph unicode="&#x401;" horiz-adv-x="1040" d="M131 0v1475h793v-263h-498v-333h492v-265h-492v-346h498v-268h-793zM188 1614v252h250v-252h-250zM600 1614v252h252v-252h-252z" />
<glyph unicode="&#x410;" horiz-adv-x="1380" d="M-18 0l583 1475h252l582 -1475h-320l-116 319h-547l-119 -319h-315zM506 569h368l-182 543z" />
<glyph unicode="&#x411;" horiz-adv-x="1132" d="M131 0v1475h842v-265h-557v-297h116q541 1 541 -458q0 -233 -158 -351q-139 -104 -380 -104h-404zM416 262h114q256 0 256 193q0 117 -71 166q-59 39 -185 38h-114v-397z" />
<glyph unicode="&#x412;" horiz-adv-x="1181" d="M131 0v1475h432q211 0 334 -89q141 -100 141 -303q0 -199 -166 -290q244 -78 244 -340q0 -453 -543 -453h-442zM416 266h176q236 0 235 185q0 195 -231 194h-180v-379zM418 877h106q145 0 197 69q29 39 29 107q0 158 -201 157h-131v-333z" />
<glyph unicode="&#x413;" horiz-adv-x="927" d="M131 0v1475h772v-265h-477v-1210h-295z" />
<glyph unicode="&#x414;" horiz-adv-x="1390" d="M10 266h123l402 1209h321l401 -1209h125v-555h-270v289h-831v-289h-271v555zM426 266h539l-269 850z" />
<glyph unicode="&#x415;" horiz-adv-x="1040" d="M131 0v1475h793v-263h-498v-333h492v-265h-492v-346h498v-268h-793z" />
<glyph unicode="&#x416;" horiz-adv-x="1863" d="M-6 0l514 741l-506 734h336l450 -703v703h287v-703l451 703h334l-506 -734l516 -741h-365l-430 700v-700h-287v700l-430 -700h-364z" />
<glyph unicode="&#x417;" horiz-adv-x="1169" d="M68 432h303q6 -92 65.5 -143t151.5 -51q96 0 152.5 52t56.5 148q0 100 -66.5 155.5t-169.5 55.5q-12 6 -29 6q-37 0 -118 -6v228h116q96 0 161 49t65 141q0 76 -50.5 123t-125.5 47q-174 0 -174 -174h-297q0 193 141 319q135 121 330 121q197 0 327 -100 q145 -111 146 -301q0 -227 -213 -320q256 -106 256 -362q0 -193 -162 -324q-154 -125 -350 -125q-211 0 -357 125q-156 129 -159 336z" />
<glyph unicode="&#x418;" horiz-adv-x="1458" d="M131 0v1475h295v-971l653 971h248v-1475h-291v977l-653 -977h-252z" />
<glyph unicode="&#x419;" horiz-adv-x="1458" d="M131 0v1475h295v-971l653 971h248v-1475h-291v977l-653 -977h-252zM412 1884h192q0 -70 33 -115q37 -51 102 -51q135 0 135 166h193q0 -141 -94 -242.5t-236 -101.5q-139 0 -232 102.5t-93 241.5z" />
<glyph unicode="&#x41a;" horiz-adv-x="1271" d="M152 0v1475h294v-697l494 697h326l-539 -734l547 -741h-354l-474 690v-690h-294z" />
<glyph unicode="&#x41b;" horiz-adv-x="1304" d="M-8 0l500 1475h321l500 -1475h-305l-355 1118l-354 -1118h-307z" />
<glyph unicode="&#x41c;" horiz-adv-x="1798" d="M129 0v1475h410l360 -1069l361 1069h409v-1475h-285v834q0 49 6.5 144t6.5 142h-4l-394 -1120h-200l-393 1120h-5q0 -47 6.5 -142t6.5 -144v-834h-285z" />
<glyph unicode="&#x41d;" horiz-adv-x="1392" d="M131 0v1475h295v-590h541v590h295v-1475h-295v616h-541v-616h-295z" />
<glyph unicode="&#x41e;" horiz-adv-x="1667" d="M68 741q0 317 225 539.5t543 222.5q319 0 541 -221.5t222 -540.5q0 -324 -221 -547t-544 -223q-319 0 -542.5 225.5t-223.5 544.5zM367 741q0 -199 135 -348t332 -149q205 0 337 149q129 143 129 350q0 199 -135 343.5t-331 144.5q-195 0 -331 -146.5t-136 -343.5z" />
<glyph unicode="&#x41f;" horiz-adv-x="1368" d="M131 0v1475h1108v-1475h-295v1206h-518v-1206h-295z" />
<glyph unicode="&#x420;" horiz-adv-x="1167" d="M131 0v1475h444q133 0 224 -23q160 -41 248 -153.5t88 -278.5t-80 -287t-234 -172q-84 -27 -196 -33h-199v-528h-295zM426 793h152q270 0 270 208q0 211 -262 211h-160v-419z" />
<glyph unicode="&#x421;" horiz-adv-x="1601" d="M68 743q0 319 222 539.5t541 220.5q250 0 437.5 -131t265.5 -366h-324q-131 225 -381 225q-199 0 -330.5 -142.5t-131.5 -343.5t131 -348q135 -154 333 -153q252 0 375 217h328q-88 -227 -271.5 -358.5t-424.5 -131.5q-326 0 -548 223.5t-222 548.5z" />
<glyph unicode="&#x422;" horiz-adv-x="931" d="M29 1210v265h878v-265h-293v-1210h-295v1210h-290z" />
<glyph unicode="&#x423;" horiz-adv-x="1284" d="M4 1475h311l342 -787l330 787h309l-618 -1475h-303l141 338z" />
<glyph unicode="&#x424;" horiz-adv-x="1642" d="M55 778q0 238 146 367q139 121 381 121h94v209h289v-209h94q244 0 381 -121q145 -127 145 -367q0 -170 -76 -295q-82 -133 -235 -190q-100 -37 -309 -37v-256h-289v256q-207 0 -307 37q-154 57 -236 190q-78 125 -78 295zM342 760q0 -121 73.5 -181.5t196.5 -60.5h66v483 h-68q-121 0 -192 -59q-76 -66 -76 -182zM963 518h65q123 0 196.5 60.5t73.5 181.5q0 119 -72.5 180t-195.5 61h-67v-483z" />
<glyph unicode="&#x425;" horiz-adv-x="1363" d="M8 0l504 766l-467 709h338l303 -496l295 496h340l-465 -713l500 -762h-338l-340 549l-336 -549h-334z" />
<glyph unicode="&#x426;" horiz-adv-x="1386" d="M135 0v1475h295v-1209h518v1209h295v-1209h137v-555h-270v289h-975z" />
<glyph unicode="&#x427;" horiz-adv-x="1212" d="M78 1004v471h282v-469q0 -213 209 -213q111 0 217 38v644h295v-1475h-295v567q-166 -39 -251 -39q-215 0 -336 129t-121 347z" />
<glyph unicode="&#x428;" horiz-adv-x="1951" d="M133 0v1475h295v-1209h414v1209h266v-1209h416v1209h295v-1475h-1686z" />
<glyph unicode="&#x429;" horiz-adv-x="1961" d="M133 0v1475h295v-1209h414v1209h266v-1209h416v1209h295v-1209h137v-555h-270v289h-1553z" />
<glyph unicode="&#x42a;" horiz-adv-x="1302" d="M25 1210v265h563v-562h117q538 1 538 -458q0 -233 -158 -351q-139 -104 -380 -104h-410v1210h-270zM588 262h112q256 0 256 193q0 117 -71 166q-59 39 -185 38h-112v-397z" />
<glyph unicode="&#x42b;" horiz-adv-x="1603" d="M131 0v1475h295v-562q217 0 315 -24q328 -82 328 -434q0 -231 -160 -351q-141 -104 -381 -104h-397zM426 262h98q256 0 256 193q0 117 -71 166q-59 39 -185 38h-98v-397zM1180 0v1475h295v-1475h-295z" />
<glyph unicode="&#x42c;" horiz-adv-x="1138" d="M131 0v1475h295v-562h117q538 1 538 -458q0 -233 -155 -351q-139 -104 -381 -104h-414zM426 262h115q256 0 256 193q0 117 -72 166q-59 39 -184 38h-115v-397z" />
<glyph unicode="&#x42d;" horiz-adv-x="1587" d="M68 420h338q125 -176 350 -176q170 0 296 103.5t150 268.5h-600v252h602q-25 162 -151.5 262.5t-294.5 100.5q-227 0 -357 -180h-333q86 215 270 333.5t420 118.5q330 0 546 -216t216 -544q0 -334 -218.5 -553t-551.5 -219q-227 0 -408.5 120t-273.5 329z" />
<glyph unicode="&#x42e;" horiz-adv-x="2113" d="M131 0v1475h295v-590h178q51 264 246 438q203 180 467 180q309 0 522 -227q207 -221 207 -535q0 -315 -209 -542.5t-522 -227.5q-270 0 -472 186.5t-243 458.5h-174v-616h-295zM883 741q0 -193 116 -342q127 -158 316 -157q197 0 321 155q115 143 115 346q0 193 -121 336 q-127 154 -315 154q-186 0 -314 -156q-119 -143 -118 -336z" />
<glyph unicode="&#x42f;" horiz-adv-x="1247" d="M66 0l405 535q-170 16 -277.5 146t-107.5 302q0 236 152 367q143 125 380 125h498v-1475h-295v586l-407 -586h-348zM373 973q0 -236 299 -236h157v473h-159q-297 0 -297 -237z" />
<glyph unicode="&#x430;" horiz-adv-x="1296" d="M61 532q0 236 147.5 398t381.5 162q215 0 330 -146v115h266v-1061h-262v125q-121 -154 -332 -154q-233 0 -382 162t-149 399zM319 532q0 -129 87.5 -226t216.5 -97q125 0 215 96t90 221q0 135 -88 230.5t-222 95.5q-131 0 -215 -94t-84 -226z" />
<glyph unicode="&#x431;" horiz-adv-x="1245" d="M80 586v184q0 354 158 547q172 209 518 209h370v-213h-411q-188 0 -288.5 -108.5t-98.5 -297.5v-8q113 160 362 160q236 0 371 -152q129 -147 129 -385q0 -256 -153.5 -403.5t-409.5 -147.5q-268 0 -414 176q-133 164 -133 439zM344 512q0 -303 283 -303q135 0 213 83 t78 220q0 133 -76 220t-207 87t-211 -87t-80 -220z" />
<glyph unicode="&#x432;" horiz-adv-x="1046" d="M113 0v1061h440q377 0 377 -285q0 -143 -131 -213v-2q182 -76 182 -256q0 -305 -426 -305h-442zM375 205h170q153 -1 153 112q0 131 -166 132h-157v-244zM375 633h143q150 0 150 123q0 106 -144 106h-149v-229z" />
<glyph unicode="&#x433;" horiz-adv-x="774" d="M113 0v1061h626v-221h-360v-840h-266z" />
<glyph unicode="&#x434;" horiz-adv-x="1097" d="M10 219h115l285 842h280l285 -842h117v-442h-226v223h-635v-223h-221v442zM385 219h330l-166 526z" />
<glyph unicode="&#x435;" horiz-adv-x="1216" d="M57 530q0 236 158 400t393 164q180 0 316.5 -94.5t197.5 -264.5q39 -106 39 -289h-846q43 -252 299 -251q98 0 148 22q65 33 96 117h270q-147 -365 -516 -365q-244 0 -399.5 159t-155.5 402zM322 641h577q-51 225 -287 225q-229 0 -290 -225z" />
<glyph unicode="&#x436;" horiz-adv-x="1550" d="M-12 0l393 547l-387 514h295l358 -504v504h256v-504l361 504h295l-390 -514l394 -547h-314l-346 520v-520h-256v520l-344 -520h-315z" />
<glyph unicode="&#x437;" horiz-adv-x="1028" d="M49 328h260q4 -70 64 -107q51 -31 127 -31q205 0 205 123q0 94 -107 121q-51 14 -180 15v188q117 0 164 12q94 27 94 111q0 121 -160 121q-170 0 -170 -119h-252q23 332 420 332q170 0 283 -70q133 -82 133 -242q0 -152 -156 -219q193 -63 193 -262q0 -162 -158 -254 q-131 -76 -307 -76q-180 0 -303 88q-137 96 -150 269z" />
<glyph unicode="&#x438;" horiz-adv-x="1189" d="M111 0v1061h266v-662l463 662h239v-1061h-266v676l-463 -676h-239z" />
<glyph unicode="&#x439;" horiz-adv-x="1189" d="M111 0v1061h266v-662l463 662h239v-1061h-266v676l-463 -676h-239zM299 1430h166q0 -63 37 -111.5t98 -48.5q63 0 99 47t36 113h166q0 -129 -86 -222.5t-215 -93.5q-127 0 -214 93t-87 223z" />
<glyph unicode="&#x43a;" horiz-adv-x="1038" d="M113 0v1061h262v-490l368 490h295l-399 -514l408 -547h-316l-356 520v-520h-262z" />
<glyph unicode="&#x43b;" horiz-adv-x="1019" d="M8 0l375 1061h252l377 -1061h-269l-235 721l-236 -721h-264z" />
<glyph unicode="&#x43c;" horiz-adv-x="1458" d="M113 0v1061h344l272 -735l272 735h345v-1061h-254l6 684l-277 -684h-184l-275 684l7 -684h-256z" />
<glyph unicode="&#x43d;" horiz-adv-x="1153" d="M111 0v1061h266v-416h397v416h266v-1061h-266v436h-397v-436h-266z" />
<glyph unicode="&#x43e;" horiz-adv-x="1253" d="M55 537q0 242 165 399.5t407 157.5q244 0 407.5 -157.5t163.5 -399.5q0 -250 -160.5 -408t-410.5 -158t-411 159t-161 407zM328 530q0 -137 80.5 -226t218.5 -89q137 0 218 89t81 226q0 141 -80 230.5t-219 89.5q-137 0 -218 -90.5t-81 -229.5z" />
<glyph unicode="&#x43f;" horiz-adv-x="1140" d="M111 0v1061h919v-1061h-266v842h-387v-842h-266z" />
<glyph unicode="&#x440;" horiz-adv-x="1296" d="M111 -455v1516h256v-129q131 158 340 158q238 0 385 -166q143 -158 143 -400q0 -227 -147.5 -391t-372.5 -164q-203 0 -338 144v-568h-266zM371 532q0 -135 84 -229t217 -94q127 0 216 96t89 223q0 135 -87 228.5t-220 93.5q-127 0 -213 -94t-86 -224z" />
<glyph unicode="&#x441;" horiz-adv-x="1204" d="M55 530q0 248 155 405t402 157q209 0 349 -103q145 -109 188 -309h-266q-80 172 -279 172q-137 0 -213 -91t-76 -231q0 -135 83 -228t216 -93q205 0 269 174h268q-47 -195 -190.5 -304.5t-346.5 -109.5q-244 0 -401.5 159t-157.5 402z" />
<glyph unicode="&#x442;" horiz-adv-x="782" d="M12 840v221h758v-221h-246v-840h-266v840h-246z" />
<glyph unicode="&#x443;" horiz-adv-x="1064" d="M8 1061h275l264 -705l250 705h272l-580 -1516h-268l195 498z" />
<glyph unicode="&#x444;" horiz-adv-x="1857" d="M57 530q0 238 121 394q131 170 363 170q137 0 254 -74v557h268v-557q125 74 254 74q233 0 364 -170q119 -154 119 -394q0 -233 -127 -391q-139 -168 -366 -168q-145 0 -244 64v-490h-268v490q-96 -63 -244 -64q-227 0 -365 170q-129 158 -129 389zM313 532 q0 -131 70 -223q78 -100 205 -100t207 96v451q-72 100 -217 100q-127 0 -199 -100q-66 -90 -66 -224zM1063 305q76 -96 207 -96t207 98q70 90 69 225q0 133 -65 224q-72 100 -199 100q-147 0 -219 -100v-451z" />
<glyph unicode="&#x445;" horiz-adv-x="1056" d="M0 0l375 563l-346 498h299l200 -320l201 320h299l-346 -498l375 -563h-301l-228 365l-227 -365h-301z" />
<glyph unicode="&#x446;" horiz-adv-x="1150" d="M115 0v1061h266v-842h387v842h264v-842h115v-442h-223v223h-809z" />
<glyph unicode="&#x447;" horiz-adv-x="1056" d="M76 711v350h258v-316q0 -143 133 -143q117 0 211 45v414h266v-1061h-266v449q-115 -55 -277 -56q-150 0 -237.5 84t-87.5 234z" />
<glyph unicode="&#x448;" horiz-adv-x="1652" d="M113 0v1061h258v-842h336v842h239v-842h336v842h258v-1061h-1427z" />
<glyph unicode="&#x449;" horiz-adv-x="1660" d="M119 0v1061h256v-842h336v842h239v-842h336v842h256v-842h113v-442h-223v223h-1313z" />
<glyph unicode="&#x44a;" horiz-adv-x="1153" d="M25 842v219h495v-404q240 0 314 -16q253 -55 253 -315q0 -172 -126 -256q-106 -70 -289 -70h-414v842h-233zM520 207h142q154 0 153 119q0 125 -164 125h-131v-244z" />
<glyph unicode="&#x44b;" horiz-adv-x="1421" d="M111 0v1061h264v-404q184 0 260 -10q307 -40 307 -321q0 -172 -127 -256q-106 -70 -289 -70h-415zM375 207h141q154 0 154 119q0 125 -166 125h-129v-244zM1042 0v1061h269v-1061h-269z" />
<glyph unicode="&#x44c;" horiz-adv-x="1026" d="M113 0v1061h266v-404q274 0 385 -39q199 -69 199 -292q0 -172 -129 -256q-106 -70 -289 -70h-432zM379 207h156q156 0 155 119q0 125 -168 125h-143v-244z" />
<glyph unicode="&#x44d;" horiz-adv-x="1191" d="M51 358h273q49 -150 254 -149q102 0 182 61.5t106 161.5h-370v201h370q-18 100 -95 159.5t-181 59.5q-211 0 -262 -143h-275q49 182 195 284q139 98 332 99q246 0 401.5 -158t155.5 -404q0 -248 -156 -404.5t-403 -156.5q-193 0 -334.5 102.5t-192.5 286.5z" />
<glyph unicode="&#x44e;" horiz-adv-x="1622" d="M111 0v1061h266v-416h115q29 197 176 324t346 127q246 0 398.5 -157t152.5 -402q0 -240 -154 -402t-393 -162q-205 0 -354.5 130t-174.5 333h-112v-436h-266zM733 530q0 -129 76 -221q82 -98 209 -98q131 0 213 96q76 90 76 223q0 137 -78 232.5t-211 95.5 q-129 0 -209 -102q-76 -94 -76 -226z" />
<glyph unicode="&#x44f;" horiz-adv-x="1019" d="M6 0l328 422q-274 59 -275 313q0 170 125 254q104 72 285 72h440v-1061h-266v453l-332 -453h-305zM332 731q0 -137 168 -137h143v260h-156q-156 0 -155 -123z" />
<glyph unicode="&#x451;" horiz-adv-x="1216" d="M55 530q0 227 162 395.5t389 168.5q246 0 399.5 -171t153.5 -419q0 -8 -24 -29q-31 -23 -35 -29h-787q25 -113 105 -180t194 -67q158 0 244 135h270q-68 -166 -205 -265.5t-311 -99.5q-229 0 -392 165t-163 396zM281 1221v241h239v-241h-239zM319 641h578 q-61 225 -287 225q-229 0 -291 -225zM698 1221v241h242v-241h-242z" />
<glyph unicode="&#x2000;" horiz-adv-x="942" />
<glyph unicode="&#x2001;" horiz-adv-x="1884" />
<glyph unicode="&#x2002;" horiz-adv-x="942" />
<glyph unicode="&#x2003;" horiz-adv-x="1884" />
<glyph unicode="&#x2004;" horiz-adv-x="628" />
<glyph unicode="&#x2005;" horiz-adv-x="471" />
<glyph unicode="&#x2006;" horiz-adv-x="314" />
<glyph unicode="&#x2007;" horiz-adv-x="314" />
<glyph unicode="&#x2008;" horiz-adv-x="235" />
<glyph unicode="&#x2009;" horiz-adv-x="376" />
<glyph unicode="&#x200a;" horiz-adv-x="104" />
<glyph unicode="&#x2010;" horiz-adv-x="622" d="M47 436v256h531v-256h-531z" />
<glyph unicode="&#x2011;" horiz-adv-x="622" d="M47 436v256h531v-256h-531z" />
<glyph unicode="&#x2012;" horiz-adv-x="622" d="M47 436v256h531v-256h-531z" />
<glyph unicode="&#x2013;" horiz-adv-x="1024" d="M-12 479v238h1048v-238h-1048z" />
<glyph unicode="&#x2014;" horiz-adv-x="2048" d="M-12 479v238h2072v-238h-2072z" />
<glyph unicode="&#x2018;" horiz-adv-x="552" d="M139 911v320q0 195 156 239q39 4 119 19v-156q-74 -6 -92.5 -29.5t-18.5 -103.5h111v-289h-275z" />
<glyph unicode="&#x2019;" horiz-adv-x="552" d="M139 897v154q76 4 94.5 26.5t18.5 104.5h-113v293h275v-318q0 -201 -158 -244q-39 -4 -117 -16z" />
<glyph unicode="&#x201a;" horiz-adv-x="552" d="M139 0v289h273v-324q0 -123 -74 -188.5t-199 -65.5v154q72 0 94 33q18 27 19 102h-113z" />
<glyph unicode="&#x201c;" horiz-adv-x="962" d="M137 911v320q0 193 156 239q39 4 119 19v-156q-74 -6 -92.5 -29.5t-18.5 -103.5h111v-289h-275zM551 911v320q0 193 156 239q39 4 118 19v-156q-74 -6 -93 -30.5t-19 -102.5h112v-289h-274z" />
<glyph unicode="&#x201d;" horiz-adv-x="962" d="M137 897v154q76 4 94.5 26.5t18.5 104.5h-113v293h275v-318q0 -201 -158 -244q-39 -4 -117 -16zM551 897v154q76 4 94.5 26.5t18.5 104.5h-113v293h274v-318q0 -199 -157 -244q-39 -4 -117 -16z" />
<glyph unicode="&#x201e;" horiz-adv-x="962" d="M137 0v289h273v-324q0 -123 -74 -188.5t-199 -65.5v154q72 0 94 33q18 27 19 102h-113zM551 0v289h272v-324q0 -123 -73.5 -188.5t-198.5 -65.5v154q72 0 94 33q18 27 19 102h-113z" />
<glyph unicode="&#x2020;" horiz-adv-x="1185" d="M129 872v226h334v377h260v-377h336v-226h-336v-1232h-260v1232h-334z" />
<glyph unicode="&#x2022;" horiz-adv-x="1347" d="M371 762q0 125 89 213t214 88q127 0 215 -87t88 -214t-89 -216t-214 -89q-123 0 -213 91t-90 214z" />
<glyph unicode="&#x2026;" horiz-adv-x="2033" d="M203 0v295h272v-295h-272zM881 0v295h272v-295h-272zM1556 0v295h273v-295h-273z" />
<glyph unicode="&#x202f;" horiz-adv-x="376" />
<glyph unicode="&#x2039;" horiz-adv-x="610" d="M76 625l252 317h223l-244 -317l246 -314h-225z" />
<glyph unicode="&#x203a;" horiz-adv-x="610" d="M57 311l246 314l-244 317h224l252 -317l-252 -314h-226z" />
<glyph unicode="&#x205f;" horiz-adv-x="471" />
<glyph unicode="&#x2122;" horiz-adv-x="1851" d="M145 1329v148h533v-148h-180v-567h-170v567h-183zM797 762v715h235l164 -476l158 476h231v-715h-164v522l-170 -522h-112l-176 522v-522h-166z" />
<glyph unicode="&#xe000;" horiz-adv-x="1064" d="M0 0v1065h1065v-1065h-1065z" />
</font>
</defs>
</svg>
